<?xml version="1.0" encoding="iso-8859-1"?>
<!--Generator: Adobe Illustrator 19.0.0, SVG Export Plug-In . SVG Version: 6.00 Build 0)-->
<!--License: CC0. Made by SVG Repo: https://www.svgrepo.com/svg/281969/computer-monitor-->
<svg version="1.1" id="Layer_1" xmlns="http://www.w3.org/2000/svg" xmlns:xlink="http://www.w3.org/1999/xlink" x="0px" y="0px" viewBox="0 0 392.533 392.533" style="enable-background:new 0 0 392.533 392.533" xml:space="preserve">
  <path style="fill:#FFFFFF" d="M32.743,298.667h327.111c6.012,0,10.925-4.848,10.925-10.925V32.776
	c0-6.012-4.848-10.925-10.925-10.925H32.743c-6.012,0-10.925,4.848-10.925,10.925v255.03
	C21.818,293.754,26.731,298.667,32.743,298.667z"/>
  <rect x="43.604" y="43.572" style="fill:#56ACE0" width="305.325" height="233.18"/>
  <polygon style="fill:#FFC10D" points="160.226,320.453 132.17,370.747 266.764,370.747 238.707,320.453 "/>
  <path style="fill:#194F82" d="M359.854,0H32.743C14.707,0,0.032,14.675,0.032,32.711v255.03c0,17.972,14.675,32.646,32.711,32.646
	h102.529l-31.224,55.919c-4.008,7.24,1.228,16.226,9.503,16.226h171.766c8.339,0,13.576-8.986,9.503-16.226l-31.16-55.855h96.129
	c18.036,0,32.711-14.675,32.711-32.711V32.776C392.566,14.675,377.891,0,359.854,0z M132.17,370.747l28.057-50.295h78.481
	l28.057,50.295H132.17z M370.78,287.741c0,6.012-4.848,10.925-10.925,10.925H32.743c-6.012,0-10.925-4.848-10.925-10.925V32.776
	c0-6.012,4.848-10.925,10.925-10.925h327.111c6.012,0,10.925,4.848,10.925,10.925v255.03l0,0V287.741z"/>
  <rect x="69.01" y="68.396" style="fill:#FFC10D" width="68.59" height="49.778"/>
  <g>
    <path style="fill:#194F82" d="M148.525,46.481H58.149c-6.012,0-10.925,4.848-10.925,10.925v71.628
		c0,6.012,4.848,10.925,10.925,10.925h90.44c6.012,0,10.925-4.848,10.925-10.925V57.471
		C159.45,51.459,154.602,46.481,148.525,46.481z M137.665,118.174H69.01V68.396h68.59v49.778H137.665z"/>
    <path style="fill:#194F82" d="M334.448,56.76H199.531c-6.012,0-10.925,4.848-10.925,10.925c0,6.012,4.848,10.925,10.925,10.925
		h134.917c6.012,0,10.925-4.848,10.925-10.925C345.374,61.673,340.46,56.76,334.448,56.76z"/>
    <path style="fill:#194F82" d="M334.448,107.96H199.531c-6.012,0-10.925,4.848-10.925,10.925c0,6.012,4.848,10.925,10.925,10.925
		h134.917c6.012,0,10.925-4.848,10.925-10.925C345.374,112.808,340.46,107.96,334.448,107.96z"/>
  </g>
  <rect x="254.933" y="202.279" style="fill:#FFC10D" width="68.59" height="49.778"/>
  <g>
    <path style="fill:#194F82" d="M334.448,180.493h-90.376c-6.012,0-10.925,4.848-10.925,10.925v71.564
		c0,6.012,4.848,10.925,10.925,10.925h90.44c6.012,0,10.925-4.849,10.925-10.925v-71.564
		C345.438,185.341,340.46,180.493,334.448,180.493z M323.588,252.057h-68.655v-49.778h68.59v49.778H323.588z"/>
    <path style="fill:#194F82" d="M193.067,190.707H58.149c-6.012,0-10.925,4.848-10.925,10.925c0,6.077,4.848,10.925,10.925,10.925
		h134.917c6.012,0,10.925-4.848,10.925-10.925C203.927,195.556,199.014,190.707,193.067,190.707z"/>
    <path style="fill:#194F82" d="M193.067,241.842H58.149c-6.012,0-10.925,4.848-10.925,10.925c0,6.077,4.848,10.925,10.925,10.925
		h134.917c6.012,0,10.925-4.849,10.925-10.925C203.992,246.691,199.014,241.842,193.067,241.842z"/>
  </g>
</svg>
