<?xml version="1.0" encoding="iso-8859-1"?>
<!--Generator: Adobe Illustrator 19.0.0, SVG Export Plug-In . SVG Version: 6.00 Build 0)-->
<!--License: CC0. Made by SVG Repo: https://www.svgrepo.com/svg/279797/real-estate-house-->
<svg version="1.1" id="Layer_1" xmlns="http://www.w3.org/2000/svg" xmlns:xlink="http://www.w3.org/1999/xlink" x="0px" y="0px" viewBox="0 0 512 512" style="enable-background:new 0 0 512 512" xml:space="preserve">
  <path style="fill:#f36076" d="M484.414,197.87c0-9.141-7.411-16.552-16.552-16.552H45.241c-9.141,0-16.552,7.411-16.552,16.552
	v235.034c0,9.141,7.411,16.552,16.552,16.552h422.621c9.141,0,16.552-7.411,16.552-16.552V197.87z"/>
  <path style="fill:#FAEAB6" d="M256,181.319H45.241c-9.141,0-16.552,7.411-16.552,16.552v235.034
	c0,9.141,7.411,16.552,16.552,16.552H256V181.319z"/>
  <path style="fill:#C34A48" d="M326.4,181.319h-38.239c-0.631,5.036,1.035,10.294,4.994,14.062l191.258,181.981v-45.694
	L326.4,181.319z"/>
  <path style="fill:#FB5858" d="M499.926,130.438L260.478,63.16c-2.929-0.822-6.026-0.822-8.954,0L12.075,130.438
	C4.935,132.444,0,138.955,0,146.372v84.966c0,9.141,7.411,16.189,16.552,16.189h478.897c9.141,0,16.552-7.048,16.552-16.189v-84.966
	C512,138.955,507.065,132.444,499.926,130.438z"/>
  <path style="fill:#FF835D" d="M256.004,62.543c-1.508,0-3.016,0.205-4.482,0.617L12.074,130.438C4.935,132.444,0,138.955,0,146.372
	v84.966c0,9.141,7.411,16.189,16.552,16.189H256L256.004,62.543z"/>
  <path style="fill:#FB5858" d="M182.069,293.87h-70.621c-9.141,0-16.552,7.411-16.552,16.552v139.034h103.724V310.422
	C198.621,301.281,191.21,293.87,182.069,293.87z"/>
  <path style="fill:#FF835D" d="M146.759,293.87h-35.31c-9.141,0-16.552,7.411-16.552,16.552v139.034h51.862V293.87z"/>
  <path style="fill:#2C6991" d="M0,198.974v32.363c0,9.141,7.411,16.189,16.552,16.189h478.897c9.141,0,16.552-7.048,16.552-16.189
	v-32.363H0z"/>
  <path style="fill:#528FB3" d="M0,198.974v32.363c0,9.141,7.411,16.189,16.552,16.189h240L256,198.974H0z"/>
</svg>
